{
  "accessors": [
    {
      "bufferView": 2,
      "componentType": 5126,
      "count": 8781,
      "max": [
        65.22811889648438,
        33.11547088623047,
        90.33587646484375
      ],
      "min": [
        -57.397621154785156,
        -33.11547088623047,
        -0.060679998248815536
      ],
      "type": "VEC3"
    },
    {
      "bufferView": 2,
      "byteOffset": 105372,
      "componentType": 5126,
      "count": 8781,
      "max": [
        1.0,
        1.0,
        1.0
      ],
      "min": [
        -1.0,
        -1.0,
        -1.0
      ],
      "type": "VEC3"
    },
    {
      "bufferView": 1,
      "componentType": 5126,
      "count": 8781,
      "max": [
        0.9993500113487244,
        0.9949399828910828
      ],
      "min": [
        0.0033599999733269215,
        0.0008800000068731606
      ],
      "type": "VEC2"
    },
    {
      "bufferView": 0,
      "componentType": 5125,
      "count": 34350,
      "type": "SCALAR"
    },
    {
      "bufferView": 2,
      "byteOffset": 210744,
      "componentType": 5126,
      "count": 24,
      "max": [
        -27.5439395904541,
        24.42000961303711,
        75.75808715820313
      ],
      "min": [
        -35.882080078125,
        -24.42000961303711,
        45.64979934692383
      ],
      "type": "VEC3"
    },
    {
      "bufferView": 2,
      "byteOffset": 211032,
      "componentType": 5126,
      "count": 24,
      "max": [
        0.9659227132797241,
        1.0,
        0.9659227132797241
      ],
      "min": [
        -0.9659227132797241,
        -1.0,
        -0.9659227132797241
      ],
      "type": "VEC3"
    },
    {
      "bufferView": 1,
      "byteOffset": 70248,
      "componentType": 5126,
      "count": 24,
      "max": [
        0.998960018157959,
        0.9785599708557129
      ],
      "min": [
        0.0010400000028312206,
        0.0010400000028312206
      ],
      "type": "VEC2"
    },
    {
      "bufferView": 0,
      "byteOffset": 137400,
      "componentType": 5125,
      "count": 36,
      "type": "SCALAR"
    }
  ],
  "asset": {
    "extras": {
      "author": "maxdragonn (https://sketchfab.com/maxdragon)",
      "license": "CC-BY-4.0 (http://creativecommons.org/licenses/by/4.0/)",
      "source": "https://sketchfab.com/3d-models/area-9-golf-cart-5fd13a5303af4f3bbbba993dad35f788",
      "title": "area 9 golf cart"
    },
    "generator": "Sketchfab-12.67.0",
    "version": "2.0"
  },
  "bufferViews": [
    {
      "buffer": 0,
      "byteLength": 137544,
      "name": "floatBufferViews",
      "target": 34963
    },
    {
      "buffer": 0,
      "byteLength": 70440,
      "byteOffset": 137544,
      "byteStride": 8,
      "name": "floatBufferViews",
      "target": 34962
    },
    {
      "buffer": 0,
      "byteLength": 211320,
      "byteOffset": 207984,
      "byteStride": 12,
      "name": "floatBufferViews",
      "target": 34962
    }
  ],
  "buffers": [
    {
      "byteLength": 419304,
      "uri": "scene.bin"
    }
  ],
  "images": [
    {
      "uri": "textures/golfcart_baseColor.png"
    },
    {
      "uri": "textures/golfcart_glass_baseColor.png"
    }
  ],
  "materials": [
    {
      "doubleSided": true,
      "name": "golfcart",
      "pbrMetallicRoughness": {
        "baseColorTexture": {
          "index": 0
        },
        "metallicFactor": 0.0,
        "roughnessFactor": 0.7070101356486633
      }
    },
    {
      "alphaMode": "BLEND",
      "doubleSided": true,
      "name": "golfcart_glass",
      "pbrMetallicRoughness": {
        "baseColorFactor": [
          1.0,
          1.0,
          1.0,
          0.19627558992880118
        ],
        "baseColorTexture": {
          "index": 1
        },
        "roughnessFactor": 0.0
      }
    }
  ],
  "meshes": [
    {
      "name": "golfcart_0",
      "primitives": [
        {
          "attributes": {
            "NORMAL": 1,
            "POSITION": 0,
            "TEXCOORD_0": 2
          },
          "indices": 3,
          "material": 0,
          "mode": 4
        }
      ]
    },
    {
      "name": "golfcart_1",
      "primitives": [
        {
          "attributes": {
            "NORMAL": 5,
            "POSITION": 4,
            "TEXCOORD_0": 6
          },
          "indices": 7,
          "material": 1,
          "mode": 4
        }
      ]
    }
  ],
  "nodes": [
    {
      "children": [
        1
      ],
      "matrix": [
        1.0,
        0.0,
        0.0,
        0.0,
        0.0,
        2.220446049250313e-16,
        -1.0,
        0.0,
        0.0,
        1.0,
        2.220446049250313e-16,
        0.0,
        0.0,
        0.0,
        0.0,
        1.0
      ],
      "name": "Sketchfab_model"
    },
    {
      "children": [
        2
      ],
      "name": "Root"
    },
    {
      "children": [
        3,
        4
      ],
      "name": "golfcart"
    },
    {
      "mesh": 0,
      "name": "golfcart_0"
    },
    {
      "mesh": 1,
      "name": "golfcart_1"
    }
  ],
  "samplers": [
    {
      "magFilter": 9729,
      "minFilter": 9987,
      "wrapS": 10497,
      "wrapT": 10497
    }
  ],
  "scene": 0,
  "scenes": [
    {
      "name": "Sketchfab_Scene",
      "nodes": [
        0
      ]
    }
  ],
  "textures": [
    {
      "sampler": 0,
      "source": 0
    },
    {
      "sampler": 0,
      "source": 1
    }
  ]
}
